# xmcd CD database file
#
# Track frame offsets:
#	150
#	12971
#	32298
#	60146
#	75974
#	89173
#	110647
#	133843
#	167911
#	200610
#
# Disc length: 3155 seconds
#
# Revision: 0
# Processed by: cddbd v1.5.2PL0 Copyright (c) Steve Scherf et al.
# Submitted via: CDex 1.70beta2
#
DISCID=790c510a
DTITLE=Dead Can Dance - March 2005 - The Hague, Holland
DYEAR=2005
DGENRE=New Age
TTITLE0=Saltarello
TTITLE1=Dreams Made Flesh
TTITLE2=Saffron
TTITLE3=Yamyinar
TTITLE4=I Can See Now
TTITLE5=American Dreaming
TTITLE6=Sanvean
TTITLE7=Yulunga
TTITLE8=Salem's Lot
TTITLE9=Hymn for the Fallen
EXTD=YEAR: 2005
EXTT0=
EXTT1=
EXTT2=
EXTT3=
EXTT4=
EXTT5=
EXTT6=
EXTT7=
EXTT8=
EXTT9=
PLAYORDER=
